<!-- Generated by IcoMoon.io -->
<svg version="1.1" xmlns="http://www.w3.org/2000/svg" width="1024" height="1024" viewBox="0 0 1024 1024">
<title></title>
<g id="icomoon-ignore">
</g>
<path fill="#232536" d="M547.809 156.682l-382.104-58.036c-17.74-2.756-35.824 2.080-49.384 13.56-13.56 11.844-21.536 28.836-21.536 46.576v732.544c0 19.144 15.64 34.784 34.784 34.784h113.004v-182.52c0-33.744 27.12-60.864 60.864-60.864h86.924c33.744 0 60.864 27.12 60.864 60.864v182.52h147.736v-709.22c-0.052-29.928-21.64-55.28-51.152-60.188v0zM286.029 604.486h-52.14c-14.392 0-26.080-11.688-26.080-26.080s11.688-26.080 26.080-26.080h52.14c14.392 0 26.080 11.688 26.080 26.080s-11.688 26.080-26.080 26.080zM286.029 500.186h-52.14c-14.392 0-26.080-11.688-26.080-26.080s11.688-26.080 26.080-26.080h52.14c14.392 0 26.080 11.688 26.080 26.080s-11.688 26.080-26.080 26.080zM286.029 395.886h-52.14c-14.392 0-26.080-11.688-26.080-26.080s11.688-26.080 26.080-26.080h52.14c14.392 0 26.080 11.688 26.080 26.080s-11.688 26.080-26.080 26.080zM286.029 291.586h-52.14c-14.392 0-26.080-11.688-26.080-26.080s11.688-26.080 26.080-26.080h52.14c14.392 0 26.080 11.688 26.080 26.080s-11.688 26.080-26.080 26.080zM459.826 604.486h-52.14c-14.392 0-26.080-11.688-26.080-26.080s11.688-26.080 26.080-26.080h52.14c14.392 0 26.080 11.688 26.080 26.080s-11.688 26.080-26.080 26.080zM459.826 500.186h-52.14c-14.392 0-26.080-11.688-26.080-26.080s11.688-26.080 26.080-26.080h52.14c14.392 0 26.080 11.688 26.080 26.080s-11.688 26.080-26.080 26.080zM459.826 395.886h-52.14c-14.392 0-26.080-11.688-26.080-26.080s11.688-26.080 26.080-26.080h52.14c14.392 0 26.080 11.688 26.080 26.080s-11.688 26.080-26.080 26.080zM459.826 291.586h-52.14c-14.392 0-26.080-11.688-26.080-26.080s11.688-26.080 26.080-26.080h52.14c14.392 0 26.080 11.688 26.080 26.080s-11.688 26.080-26.080 26.080z"></path>
<path fill="#ffd050" d="M881.216 468.645l-247.544-51.828v509.292h234.68c33.536 0 60.864-27.276 60.864-60.864v-337.14c0-28.732-19.612-53.2-47.98-59.46zM798.817 821.79h-52.14c-14.392 0-26.080-11.688-26.080-26.080s11.688-26.080 26.080-26.080h52.14c14.392 0 26.080 11.688 26.080 26.080s-11.688 26.080-26.080 26.080zM798.817 717.49h-52.14c-14.392 0-26.080-11.688-26.080-26.080s11.688-26.080 26.080-26.080h52.14c14.392 0 26.080 11.688 26.080 26.080s-11.688 26.080-26.080 26.080zM798.817 613.19h-52.14c-14.392 0-26.080-11.688-26.080-26.080s11.688-26.080 26.080-26.080h52.14c14.392 0 26.080 11.688 26.080 26.080s-11.688 26.080-26.080 26.080z"></path>
</svg>
