<!-- Generated by IcoMoon.io -->
<svg version="1.1" xmlns="http://www.w3.org/2000/svg" width="1024" height="1024" viewBox="0 0 1024 1024">
<title></title>
<g id="icomoon-ignore">
</g>
<path fill="#232536" d="M240.501 658.157h-110.245c-39.757 0-72.103 33.818-72.103 75.379v244.181c0 25.527 19.865 46.293 44.279 46.293h165.888c24.416 0 44.282-20.766 44.282-46.293v-244.177c0-41.566-32.344-75.383-72.101-75.383z"></path>
<path fill="#232536" d="M564.087 509.844h-110.246c-39.757 0-72.103 33.818-72.103 75.379v392.486c0 25.527 19.865 46.293 44.282 46.293h165.887c24.418 0 44.279-20.766 44.279-46.293v-392.486c0-41.566-32.341-75.379-72.098-75.379z"></path>
<path fill="#232536" d="M893.751 340.865h-110.242c-39.761 0-72.107 33.816-72.107 75.378v561.466c0 25.527 19.866 46.293 44.279 46.293h165.888c24.418 0 44.279-20.766 44.279-46.293v-561.466c0.004-41.562-32.341-75.378-72.098-75.378z"></path>
<path fill="#ffd050" d="M805.943 28.519c-13.487-19.928-35.418-30.466-58.675-28.234l-208.218 20.14c-23.253 2.25-42.961 16.83-52.723 39.004s-7.539 47.312 5.948 67.24l11.622 17.172-258.702 186.892c-18.339 13.566-30.525 33.788-34.314 56.938s1.268 46.455 14.245 65.63c12.976 19.17 32.319 31.91 54.462 35.874 4.798 0.858 9.602 1.284 14.373 1.284 17.187 0 33.928-5.513 48.259-16.064l258.851-186.994 11.998 17.722c12.292 18.158 31.59 28.532 52.51 28.532 2.039 0 4.096-0.1 6.165-0.298 23.249-2.25 42.961-16.832 52.723-39.008l87.428-198.59c9.762-22.178 7.539-47.314-5.952-67.24z"></path>
</svg>
