<!-- Generated by IcoMoon.io -->
<svg version="1.1" xmlns="http://www.w3.org/2000/svg" width="1024" height="1024" viewBox="0 0 1024 1024">
<title></title>
<g id="icomoon-ignore">
</g>
<path d="M512.3 92.298c136.801 0 152.999 0.6 206.797 3 50.003 2.2 77.005 10.6 95.002 17.6 23.802 9.2 40.998 20.4 58.803 38.2 17.997 17.999 28.998 35 38.195 58.8 7.002 18 15.405 45.2 17.6 95 2.4 54 3.002 70.2 3.002 206.8 0 136.803-0.602 153.002-3.002 206.8-2.195 50.003-10.598 76.998-17.6 95.002-9.197 23.802-20.397 40.998-38.195 58.797-18.003 18.003-35.002 29.005-58.803 38.202-17.997 7.002-45.197 15.398-95.002 17.6-53.997 2.4-70.195 3.002-206.797 3.002-136.8 0-153-0.602-206.8-3.002-50.001-2.202-77-10.598-95-17.6-23.8-9.197-41-20.397-58.8-38.202-18-17.997-29-34.995-38.2-58.797-7-18.003-15.4-45.203-17.6-95.002-2.4-53.997-3-70.202-3-206.8 0-136.8 0.6-153 3-206.8 2.2-50 10.6-77 17.6-95 9.2-23.8 20.4-41 38.2-58.8 18-18.001 35-29 58.8-38.2 18-7 45.2-15.4 95-17.6 53.8-2.4 70-3 206.8-3zM512.3 0.098c-139 0-156.401 0.6-211 3-54.4 2.4-91.8 11.2-124.2 23.8-33.8 13.2-62.4 30.6-90.8 59.2-28.6 28.4-46 57-59.2 90.6-12.6 32.6-21.4 69.8-23.8 124.2-2.4 54.8-3 72.2-3 211.2 0 139.002 0.6 156.403 3 211.002 2.4 54.4 11.2 91.802 23.8 124.198 13.2 33.798 30.6 62.4 59.2 90.797 28.4 28.403 57 46.003 90.6 59.002 32.6 12.602 69.8 21.402 124.2 23.802 54.6 2.4 72 3.002 211 3.002 138.998 0 156.399-0.602 210.998-3.002 54.4-2.4 91.802-11.2 124.205-23.802 33.6-12.998 62.195-30.598 90.598-59.002 28.397-28.397 45.997-56.998 59.002-90.598 12.595-32.595 21.395-69.798 23.795-124.198 2.4-54.598 3.002-72 3.002-211s-0.602-156.4-3.002-211c-2.4-54.4-11.2-91.8-23.795-124.2-12.602-33.999-30.003-62.6-58.605-91-28.397-28.4-56.998-46-90.598-59-32.602-12.6-69.798-21.4-124.198-23.8-54.803-2.6-72.198-3.2-211.201-3.2z"></path>
<path d="M512.3 249.098c-145.2 0-263 117.8-263 263 0 145.203 117.8 263.002 263 263.002 145.198 0 263.003-117.798 263.003-263.002 0-145.2-117.805-263-263.003-263zM512.3 682.696c-94.2 0-170.6-76.398-170.6-170.598s76.4-170.6 170.6-170.6c94.2 0 170.6 76.401 170.6 170.6s-76.399 170.598-170.6 170.598z"></path>
<path d="M847.098 238.686c0 34-27.597 61.4-61.395 61.4-34.003 0-61.402-27.6-61.402-61.4 0-34 27.597-61.4 61.402-61.4 33.798 0 61.395 27.601 61.395 61.4z"></path>
</svg>
