<!-- Generated by IcoMoon.io -->
<svg version="1.1" xmlns="http://www.w3.org/2000/svg" width="1024" height="1024" viewBox="0 0 1024 1024">
<title></title>
<g id="icomoon-ignore">
</g>
<path d="M948.198 0h-872.598c-41.8 0-75.6 33-75.6 73.8v876.203c0 40.8 33.8 73.997 75.6 73.997h872.598c41.805 0 75.802-33.197 75.802-73.798v-876.401c0-40.8-33.997-73.8-75.802-73.8zM303.8 872.602h-151.999v-488.802h151.999v488.802zM227.8 317.2c-48.8 0-88.2-39.4-88.2-88s39.4-88 88.2-88c48.6 0 87.999 39.4 87.999 88 0 48.4-39.4 88-87.999 88zM872.602 872.602h-151.802v-237.601c0-56.6-0.998-129.601-79.002-129.601-78.998 0-90.998 61.8-90.998 125.601v241.601h-151.6v-488.802h145.6v66.801h2c20.2-38.4 69.8-79 143.6-79 153.798 0 182.202 101.2 182.202 232.8v268.202z"></path>
</svg>
