<!-- Generated by IcoMoon.io -->
<svg version="1.1" xmlns="http://www.w3.org/2000/svg" width="1024" height="1024" viewBox="0 0 1024 1024">
<title></title>
<g id="icomoon-ignore">
</g>
<path fill="#ffd050" d="M260.476 276.542l-88.715 6.854c-24.686 1.908-46.672 14.846-60.324 35.496l-102.313 154.742c-10.354 15.658-12 35.257-4.406 52.424 7.596 17.168 23.206 29.135 41.756 32.007l81.229 12.582c19.002-100.842 64.489-201.432 132.773-294.105z"></path>
<path fill="#ffd050" d="M453.392 896.292l12.582 81.23c2.872 18.552 14.839 34.162 32.002 41.752 7.141 3.161 14.701 4.719 22.225 4.719 10.565 0 21.059-3.076 30.204-9.123l154.749-102.311c20.649-13.655 33.587-35.644 35.488-60.327l6.856-88.714c-92.676 68.287-193.264 113.775-294.106 132.773z"></path>
<path fill="#ffd050" d="M422.804 839.967c2.82 0 5.656-0.232 8.486-0.703 42.248-7.061 82.967-18.962 121.812-34.54l-333.859-333.855c-15.576 38.841-27.476 79.56-34.54 121.811-2.784 16.651 2.802 33.618 14.74 45.559l186.287 186.283c9.912 9.911 23.29 15.445 37.074 15.445z"></path>
<path fill="#232536" d="M942.352 454c81.697-157.946 84.72-324.856 80.451-403.136-1.46-26.822-22.844-48.206-49.668-49.668-12.747-0.696-27.853-1.198-44.878-1.198-87.53 0-226.032 13.258-358.258 81.652-105.085 54.353-242.877 174.035-324.173 331.317 0.96 0.75 1.898 1.546 2.782 2.43l359.995 359.996c0.886 0.886 1.678 1.821 2.431 2.783 157.282-81.301 276.965-219.091 331.317-324.176zM595.394 216.476c58.479-58.482 153.645-58.488 212.128 0 28.334 28.33 43.934 65.999 43.934 106.065s-15.6 77.735-43.934 106.065c-29.237 29.24-67.66 43.861-106.064 43.865-38.418 0-76.818-14.621-106.064-43.865-28.334-28.33-43.934-65.999-43.934-106.065s15.6-77.735 43.934-106.065z"></path>
<path fill="#232536" d="M637.836 386.181c35.092 35.090 92.191 35.092 127.283 0 16.998-17 26.357-39.6 26.357-63.64s-9.358-46.64-26.357-63.638c-17.546-17.546-40.595-26.318-63.639-26.318-23.049 0-46.098 8.772-63.639 26.318-16.998 16.998-26.361 39.598-26.361 63.638s9.363 46.642 26.357 63.64z"></path>
<path fill="#ffd050" d="M30.61 843.859c7.678 0 15.356-2.93 21.212-8.789l97.946-97.948c11.716-11.714 11.716-30.707 0-42.425-11.714-11.714-30.71-11.714-42.426 0l-97.946 97.948c-11.716 11.714-11.716 30.711 0 42.425 5.858 5.859 13.536 8.789 21.214 8.789z"></path>
<path fill="#ffd050" d="M239.523 784.48c-11.714-11.714-30.71-11.714-42.426 0l-188.31 188.309c-11.716 11.718-11.716 30.711 0 42.429 5.858 5.855 13.536 8.784 21.214 8.784s15.356-2.93 21.212-8.789l188.308-188.309c11.718-11.714 11.718-30.707 0.002-42.425z"></path>
<path fill="#ffd050" d="M286.818 874.218l-97.944 97.948c-11.716 11.718-11.716 30.711 0 42.425 5.858 5.859 13.536 8.789 21.212 8.789s15.356-2.93 21.212-8.789l97.946-97.943c11.716-11.718 11.716-30.711 0-42.429-11.714-11.714-30.71-11.714-42.426 0z"></path>
</svg>
