<!-- Generated by IcoMoon.io -->
<svg version="1.1" xmlns="http://www.w3.org/2000/svg" width="1024" height="1024" viewBox="0 0 1024 1024">
<title></title>
<g id="icomoon-ignore">
</g>
<path fill="#232536" d="M662.002 300.001c0 33.076 26.923 60 59.998 60h178.364c-3.238-42.224-13.030-82.576-28.698-120h-149.666c-33.075 0-59.998 26.924-59.998 60z"></path>
<path fill="#ffd050" d="M272.001 1024.001h360.002c16.58 0 29.999-13.419 29.999-29.999v-154.001h59.998v-194.999l-299.981-225.001h-270.018c-16.582 0-30 13.417-30 30.001 0 106.257 43.564 208.038 120 281.425v262.575c0 16.58 13.418 29.999 30 29.999z"></path>
<path fill="#232536" d="M512.003 0.001c-16.585 0-30.003 13.418-30.003 30v30h-125.525c-12.426-34.844-45.414-60-84.474-60-49.628 0-90 40.372-90 90s40.372 90 90 90c39.060 0 72.048-25.156 84.474-60h125.525v120h-305.525c-12.426-34.844-45.414-60-84.474-60-49.628 0-92 40.372-92 90s42.372 90 92 90c39.060 0 72.048-25.156 84.474-60h305.525v90.014l287.987 215.994c7.561 5.653 12.015 14.558 12.015 23.991v210.001h29.999c49.63 0 90.001-40.371 90.001-90.001v-149.999h91.998c11.076 0 21.239-6.093 26.458-15.851 5.214-9.754 4.629-21.589-1.493-30.793l-90.906-133.357h-206.059c-66.18 0-120-53.818-120-120s53.82-120 120-120h118.012c-69.414-108.044-190.319-180-328.009-180v0z"></path>
</svg>
