<!-- Generated by IcoMoon.io -->
<svg version="1.1" xmlns="http://www.w3.org/2000/svg" width="1024" height="1024" viewBox="0 0 1024 1024">
<title></title>
<g id="icomoon-ignore">
</g>
<path d="M322.14 928.016c386.32 0 597.68-320.141 597.68-597.681 0-9-0.198-18.2-0.602-27.2 41.12-29.734 76.602-66.564 104.781-108.76-38.291 17.037-78.95 28.164-120.576 33 43.834-26.275 76.653-67.553 92.378-116.18-41.235 24.439-86.336 41.679-133.363 50.98-31.68-33.666-73.574-55.957-119.2-63.427-45.619-7.469-92.435 0.299-133.203 22.103-40.763 21.805-73.211 56.431-92.323 98.527s-23.826 89.315-13.411 134.356c-83.5-4.19-165.188-25.881-239.767-63.667s-140.386-90.822-193.153-155.672c-26.819 46.239-35.026 100.955-22.952 153.027s43.521 97.594 87.952 127.313c-33.356-1.059-65.981-10.040-95.18-26.2v2.6c-0.030 48.524 16.745 95.562 47.475 133.116s73.515 63.308 121.085 72.884c-30.899 8.454-63.329 9.686-94.78 3.6 13.423 41.732 39.54 78.232 74.706 104.401 35.166 26.176 77.626 40.717 121.454 41.6-74.407 58.445-166.322 90.15-260.94 89.997-16.78-0.026-33.543-1.050-50.2-3.078 96.122 61.67 207.938 94.419 322.14 94.362z"></path>
</svg>
