<!-- Generated by IcoMoon.io -->
<svg version="1.1" xmlns="http://www.w3.org/2000/svg" width="1024" height="1024" viewBox="0 0 1024 1024">
<title></title>
<g id="icomoon-ignore">
</g>
<path d="M153.622 499.504c-2.86 2.923-5.052 6.45-6.417 10.331s-1.87 8.019-1.48 12.121l-0.136-0.138c0.401 4.828-0.24 9.686-1.879 14.237s-4.236 8.683-7.61 12.109c-3.373 3.426-7.444 6.063-11.925 7.727s-9.267 2.315-14.021 1.908l0.136 0.138c-5.687-0.537-11.4 0.719-16.358 3.598s-8.921 7.243-11.348 12.493c-2.428 5.25-3.201 11.134-2.215 16.846s3.684 10.978 7.724 15.078c4.041 4.099 9.229 6.833 14.856 7.829s11.421 0.205 16.589-2.264 9.461-6.497 12.293-11.534c2.832-5.038 4.064-10.839 3.529-16.613l0.144 0.138c-0.402-4.828 0.24-9.686 1.878-14.237s4.236-8.683 7.61-12.109c3.374-3.426 7.443-6.063 11.925-7.727s9.267-2.315 14.021-1.908l-0.143-0.138c4.646 0.424 9.322-0.349 13.595-2.249s8.005-4.863 10.85-8.617c2.844-3.754 4.71-8.176 5.423-12.857s0.251-9.469-1.343-13.92c-1.594-4.452-4.269-8.422-7.778-11.544s-7.735-5.294-12.29-6.316c-4.555-1.022-9.29-0.859-13.767 0.473s-8.55 3.79-11.842 7.145h-0.023z"></path>
<path d="M97.931 539.861l-0.143-0.138c4.041 0.413 8.123-0.090 11.948-1.475 3.826-1.384 7.302-3.614 10.174-6.53s5.073-6.442 6.438-10.326c1.366-3.884 1.866-8.028 1.461-12.132l0.143 0.138c-0.401-4.828 0.24-9.687 1.879-14.237s4.236-8.683 7.61-12.109 7.444-6.063 11.925-7.727c4.481-1.664 9.267-2.315 14.022-1.908l-0.144-0.138c5.688 0.542 11.402-0.711 16.364-3.587s8.927-7.237 11.358-12.487 3.208-11.133 2.225-16.847c-0.983-5.714-3.679-10.982-7.718-15.084s-9.227-6.839-14.855-7.837c-5.628-0.998-11.422-0.209-16.592 2.259s-9.465 6.496-12.297 11.533-4.066 10.84-3.532 16.615l-0.136-0.146c0.402 4.828-0.237 9.687-1.876 14.238s-4.236 8.684-7.61 12.11c-3.374 3.427-7.445 6.063-11.926 7.727s-9.268 2.313-14.022 1.904l0.136 0.145c-4.041-0.413-8.123 0.091-11.948 1.475s-7.302 3.615-10.174 6.53-5.073 6.442-6.438 10.326c-1.366 3.885-1.866 8.028-1.461 12.132l-0.136-0.138c0.4 4.827-0.242 9.685-1.882 14.235s-4.236 8.682-7.61 12.107c-3.374 3.426-7.443 6.063-11.924 7.727s-9.265 2.317-14.020 1.91l0.136 0.138c-5.688-0.543-11.402 0.71-16.364 3.586s-8.928 7.237-11.359 12.486c-2.431 5.25-3.208 11.133-2.225 16.848s3.678 10.982 7.718 15.084c4.040 4.102 9.227 6.838 14.855 7.837s11.422 0.21 16.592-2.259 9.464-6.496 12.297-11.534c2.833-5.037 4.066-10.84 3.532-16.616l0.143 0.138c-0.401-4.828 0.24-9.687 1.879-14.237 1.639-4.551 4.236-8.683 7.61-12.109s7.444-6.063 11.925-7.727 9.267-2.315 14.021-1.908z"></path>
<path d="M47.331 524.478c2.861-2.922 5.052-6.449 6.416-10.331s1.867-8.019 1.473-12.121l0.143 0.138c-0.402-4.829 0.24-9.689 1.879-14.24s4.239-8.685 7.614-12.112c3.376-3.426 7.448-6.063 11.931-7.726s9.27-2.312 14.026-1.902l-0.143-0.138c5.686 0.541 11.399-0.712 16.357-3.588 4.96-2.876 8.924-7.236 11.354-12.484s3.205-11.129 2.222-16.842-3.678-10.978-7.715-15.078c-4.038-4.1-9.224-6.836-14.85-7.834s-11.417-0.21-16.586 2.257c-5.169 2.467-9.462 6.492-12.295 11.528s-4.067 10.835-3.534 16.609l-0.136-0.138c0.401 4.828-0.24 9.687-1.879 14.237s-4.236 8.683-7.61 12.109c-3.374 3.426-7.444 6.063-11.925 7.727s-9.267 2.315-14.021 1.907l0.136 0.138c-4.646-0.423-9.322 0.352-13.594 2.252s-8.004 4.864-10.847 8.619c-2.844 3.754-4.708 8.176-5.421 12.857s-0.25 9.469 1.345 13.92c1.595 4.451 4.271 8.421 7.779 11.542s7.736 5.294 12.291 6.314 9.29 0.858 13.766-0.475c4.476-1.331 8.549-3.79 11.841-7.145h-0.015z"></path>
<path d="M281.172 448.027h22.42v110.785h-22.42v-110.785z"></path>
<path d="M316.296 520.88c-0.032-7.962 2.265-15.753 6.599-22.388s10.508-11.816 17.743-14.884c7.235-3.069 15.203-3.889 22.898-2.354 7.693 1.533 14.766 5.35 20.321 10.969s9.344 12.784 10.885 20.591c1.541 7.806 0.766 15.901-2.227 23.259s-8.070 13.65-14.587 18.076c-6.517 4.427-14.182 6.789-22.022 6.789-5.205 0.060-10.37-0.933-15.191-2.923-4.823-1.99-9.205-4.936-12.893-8.666s-6.607-8.168-8.586-13.057c-1.979-4.888-2.978-10.127-2.939-15.413zM373.094 520.88c-0.093-3.431-1.181-6.758-3.127-9.567-1.945-2.807-4.663-4.969-7.812-6.217s-6.592-1.525-9.897-0.797c-3.303 0.729-6.323 2.429-8.68 4.89s-3.948 5.573-4.574 8.946c-0.625 3.374-0.257 6.86 1.060 10.023 1.315 3.163 3.519 5.861 6.337 7.758s6.124 2.909 9.505 2.909c2.315 0.063 4.618-0.362 6.764-1.249 2.145-0.885 4.087-2.214 5.702-3.899 1.616-1.687 2.869-3.693 3.682-5.896s1.168-4.552 1.041-6.901z"></path>
<path d="M484.877 482.936v72.053c0 25.495-19.582 36.272-39.459 36.272-6.998 0.532-14.006-0.903-20.254-4.148s-11.495-8.175-15.166-14.248l19.129-11.229c1.543 3.166 4.002 5.778 7.047 7.486s6.531 2.431 9.991 2.073c2.212 0.311 4.465 0.113 6.591-0.579s4.072-1.861 5.694-3.419 2.878-3.468 3.674-5.586 1.114-4.391 0.928-6.651v-6.936c-2.625 3.262-5.967 5.853-9.757 7.566s-7.924 2.5-12.067 2.298c-9.861-0.316-19.214-4.515-26.078-11.709s-10.704-16.818-10.704-26.835c0-10.018 3.838-19.642 10.704-26.836 6.865-7.193 16.217-11.393 26.078-11.708 4.144-0.202 8.277 0.586 12.067 2.298s7.131 4.305 9.757 7.567v-7.742l21.824 0.015zM463.061 519.354c0.151-3.669-0.783-7.3-2.682-10.425s-4.675-5.602-7.972-7.112c-3.296-1.509-6.962-1.982-10.527-1.359-3.563 0.624-6.861 2.317-9.47 4.86s-4.407 5.822-5.165 9.412c-0.758 3.591-0.441 7.329 0.911 10.735s3.677 6.323 6.676 8.375c2.999 2.053 6.533 3.147 10.15 3.143 2.355 0.167 4.719-0.17 6.939-0.986s4.247-2.098 5.95-3.758c1.703-1.661 3.045-3.666 3.939-5.885s1.32-4.603 1.251-7z"></path>
<path d="M497.573 520.88c-0.031-7.962 2.265-15.753 6.599-22.388s10.508-11.816 17.743-14.884 15.203-3.889 22.898-2.354 14.766 5.35 20.322 10.969c5.556 5.618 9.344 12.784 10.885 20.591s0.766 15.901-2.227 23.259-8.069 13.65-14.587 18.076c-6.517 4.427-14.182 6.789-22.023 6.789-5.205 0.060-10.369-0.933-15.191-2.923s-9.206-4.936-12.893-8.666-6.607-8.168-8.586-13.057c-1.979-4.888-2.978-10.127-2.94-15.413zM554.373 520.88c-0.094-3.431-1.182-6.758-3.128-9.567-1.945-2.807-4.663-4.969-7.813-6.217s-6.592-1.525-9.896-0.797c-3.304 0.729-6.323 2.429-8.681 4.89s-3.948 5.573-4.573 8.946c-0.625 3.374-0.257 6.86 1.059 10.023s3.52 5.861 6.337 7.758c2.819 1.897 6.124 2.909 9.505 2.909 2.316 0.063 4.619-0.362 6.764-1.249 2.145-0.885 4.087-2.214 5.702-3.899s2.869-3.693 3.681-5.896c0.813-2.202 1.168-4.552 1.042-6.901z"></path>
<path d="M587.244 462.597c0-2.702 0.789-5.342 2.268-7.589 1.478-2.246 3.579-3.997 6.038-5.031s5.162-1.304 7.769-0.777c2.614 0.527 5.006 1.828 6.89 3.738 1.878 1.91 3.164 4.344 3.678 6.994 0.52 2.65 0.257 5.396-0.766 7.892-1.016 2.496-2.739 4.629-4.952 6.13s-4.814 2.303-7.476 2.303c-3.552-0.037-6.955-1.487-9.47-4.041s-3.944-6.008-3.979-9.619zM589.51 482.933h22.429v75.885h-22.459l0.030-75.885z"></path>
<path d="M708.749 520.878c0.257 5.016-0.456 10.033-2.115 14.764s-4.224 9.085-7.542 12.807-7.336 6.742-11.798 8.885c-4.475 2.144-9.329 3.367-14.267 3.602-4.153 0.23-8.307-0.481-12.158-2.083-3.845-1.602-7.304-4.053-10.101-7.177v37.491h-22.424v-106.232h22.424v7.128c2.803-3.121 6.256-5.571 10.107-7.171 3.845-1.601 7.998-2.311 12.151-2.081 4.938 0.233 9.792 1.457 14.267 3.6 4.468 2.144 8.487 5.163 11.804 8.887s5.883 8.078 7.542 12.811c1.659 4.733 2.372 9.752 2.109 14.768zM686.33 520.878c-0.084-3.551-1.202-6.998-3.215-9.908-2-2.91-4.816-5.154-8.069-6.451-3.26-1.298-6.822-1.591-10.236-0.843-3.42 0.748-6.552 2.503-8.995 5.046s-4.096 5.762-4.745 9.253c-0.643 3.491-0.27 7.099 1.087 10.372 1.363 3.273 3.645 6.067 6.558 8.031 2.919 1.964 6.339 3.012 9.837 3.011 2.398 0.109 4.796-0.3 7.034-1.198s4.256-2.266 5.941-4.014c1.678-1.748 2.97-3.836 3.8-6.128s1.17-4.735 1.003-7.171z"></path>
<path d="M777.923 536.047c0 17.453-14.935 24.889-31.073 24.889-6.519 0.6-13.071-0.8-18.799-4.020s-10.377-8.109-13.335-14.039l19.417-11.229c0.791 2.74 2.475 5.124 4.783 6.754 2.315 1.629 5.098 2.405 7.902 2.198 5.381 0 8.069-1.67 8.069-4.699 0-8.355-36.77-3.947-36.77-30.201 0-16.549 13.759-24.889 29.299-24.889 5.844-0.187 11.631 1.22 16.755 4.076s9.4 7.054 12.383 12.16l-19.127 10.47c-0.842-1.988-2.237-3.68-4.018-4.868s-3.864-1.816-5.992-1.809c-3.883 0-6.281 1.533-6.281 4.247 0.026 8.654 36.789 2.882 36.789 30.96z"></path>
<path d="M859.839 482.933v75.885h-22.419v-7.136c-2.585 3.148-5.87 5.63-9.58 7.239-3.716 1.609-7.754 2.302-11.785 2.019-15.096 0-27.929-10.923-27.929-31.427v-46.581h22.419v43.247c-0.186 1.807 0.013 3.634 0.592 5.354 0.585 1.72 1.524 3.291 2.758 4.605 1.241 1.313 2.739 2.336 4.411 2.999 1.665 0.663 3.453 0.95 5.24 0.839 8.223 0 13.894-4.852 13.894-15.629v-41.393l22.4-0.023z"></path>
<path d="M988.388 512.224v46.589h-22.419v-44.619c0-7.589-3.594-12.44-10.763-12.44-7.471 0-11.663 5.311-11.663 14.265v42.794h-22.406v-44.619c0-7.589-3.594-12.44-10.769-12.44-7.477 0-11.656 5.311-11.656 14.265v42.794h-22.419v-75.885h22.419v6.975c2.327-3.095 5.375-5.549 8.879-7.138 3.498-1.589 7.329-2.263 11.149-1.961 3.838-0.19 7.657 0.632 11.084 2.386 3.433 1.755 6.359 4.382 8.493 7.625 2.482-3.393 5.774-6.092 9.567-7.843 3.787-1.75 7.953-2.497 12.1-2.169 17.16 0.008 28.405 12.448 28.405 31.42z"></path>
<path d="M1007.361 482.464c9.188 0 16.639-7.564 16.639-16.894s-7.452-16.894-16.639-16.894c-9.181 0-16.639 7.564-16.639 16.894s7.458 16.894 16.639 16.894z"></path>
</svg>
