<!-- Generated by IcoMoon.io -->
<svg version="1.1" xmlns="http://www.w3.org/2000/svg" width="1024" height="1024" viewBox="0 0 1024 1024">
<title></title>
<g id="icomoon-ignore">
</g>
<path fill="#000" d="M329.144 576.334c-5.178 0.28-10.299-1.19-14.538-4.176-1.771-1.313-3.195-3.035-4.152-5.019s-1.413-4.173-1.33-6.374v-80.624c-0.044-0.341-0.007-0.686 0.106-1.013 0.11-0.328 0.296-0.622 0.54-0.865s0.539-0.429 0.867-0.54c0.328-0.11 0.673-0.147 1.014-0.106h14.623c1.652 0 2.436 0.868 2.436 2.523v74.363c0 3.306 1.482 4.958 4.524 4.958 1.291 0.055 2.585-0.095 3.831-0.434 1.74 0 2.699 0.519 2.786 2.085l1.304 10.871c0.062 0.315 0.057 0.645-0.020 0.957-0.073 0.315-0.214 0.609-0.414 0.867s-0.448 0.468-0.736 0.617-0.6 0.238-0.924 0.258c-3.202 1.060-6.551 1.613-9.922 1.649z"></path>
<path fill="#000" d="M411.403 567.029c-7.348 6.066-16.579 9.385-26.111 9.385s-18.762-3.319-26.111-9.385c-6.458-6.514-10.082-15.314-10.082-24.485s3.624-17.968 10.082-24.485c7.361-6.035 16.592-9.332 26.111-9.332s18.747 3.297 26.111 9.332c6.31 6.576 9.831 15.334 9.831 24.441s-3.523 17.863-9.831 24.439v0.085zM372.933 555.549c3.409 3.088 7.847 4.795 12.446 4.795s9.037-1.711 12.446-4.795c3.088-3.546 4.785-8.086 4.785-12.785s-1.7-9.239-4.785-12.786c-3.409-3.088-7.847-4.795-12.446-4.795-4.601 0-9.037 1.71-12.446 4.795-3.088 3.547-4.784 8.086-4.784 12.786 0 4.698 1.7 9.239 4.784 12.785z"></path>
<path fill="#000" d="M501.748 510.927c1.653 0 2.436 0.868 2.436 2.523v62.36c0.151 4.209-0.636 8.4-2.306 12.266s-4.182 7.311-7.353 10.085c-7.039 5.999-16.090 9.106-25.328 8.696-8.347 0.293-16.579-1.984-23.588-6.524-2.994-1.964-5.55-4.523-7.511-7.515s-3.286-6.356-3.892-9.88c0-1.74 0-2.523 2.35-2.523h14.624c0.622 0.020 1.222 0.222 1.731 0.576s0.904 0.85 1.14 1.424c0.947 2.641 2.84 4.841 5.307 6.175 3.011 1.551 6.36 2.329 9.75 2.262 2.043 0.112 4.089-0.187 6.015-0.87 1.929-0.686 3.701-1.753 5.211-3.128 1.379-1.445 2.456-3.15 3.159-5.017s1.020-3.859 0.93-5.855v-5.478c-5.235 3.847-11.608 5.837-18.105 5.654-4.548 0.165-9.081-0.588-13.329-2.217s-8.12-4.1-11.392-7.261c-6.274-6.488-9.784-15.155-9.784-24.177s3.51-17.693 9.784-24.177c3.284-3.136 7.163-5.58 11.407-7.194 4.244-1.61 8.772-2.361 13.309-2.2 6.683-0.176 13.229 1.943 18.54 6.002v-1.392c-0.041-0.332-0.007-0.672 0.102-0.99s0.285-0.609 0.519-0.85c0.234-0.241 0.519-0.431 0.831-0.545s0.65-0.164 0.986-0.134l14.447-0.086zM467.979 560.679c2.241 0.070 4.473-0.354 6.532-1.238 2.061-0.887 3.901-2.215 5.391-3.891 2.894-3.733 4.462-8.324 4.462-13.049s-1.573-9.312-4.462-13.049c-1.484-1.652-3.315-2.96-5.36-3.831s-4.256-1.286-6.477-1.214c-2.265-0.070-4.524 0.354-6.614 1.238s-3.961 2.215-5.486 3.895c-3.205 3.573-4.892 8.251-4.701 13.049-0.158 4.746 1.492 9.378 4.614 12.958 1.528 1.676 3.399 3 5.487 3.886s4.344 1.31 6.611 1.244z"></path>
<path fill="#000" d="M579.284 567.023c-7.361 6.035-16.592 9.332-26.111 9.332s-18.747-3.297-26.111-9.332c-6.315-6.591-9.84-15.358-9.84-24.485s3.523-17.895 9.84-24.485c7.368-6.019 16.592-9.308 26.111-9.308s18.742 3.289 26.111 9.308c6.31 6.575 9.831 15.334 9.831 24.44s-3.523 17.864-9.831 24.439v0.086zM540.727 555.544c1.669 1.586 3.637 2.826 5.786 3.647s4.446 1.209 6.745 1.137c2.289 0.057 4.564-0.332 6.7-1.152 2.138-0.822 4.089-2.055 5.745-3.629 3.035-3.57 4.704-8.101 4.704-12.786s-1.666-9.215-4.704-12.785c-1.659-1.574-3.612-2.808-5.745-3.629-2.138-0.82-4.411-1.214-6.7-1.153-2.305-0.070-4.594 0.315-6.745 1.137s-4.117 2.061-5.786 3.648c-3.035 3.57-4.704 8.101-4.704 12.785s1.666 9.216 4.704 12.786z"></path>
<path fill="#000" d="M620.541 496.145c-2.301 2.011-5.256 3.122-8.311 3.122s-6.012-1.111-8.311-3.122c-1.044-0.981-1.874-2.171-2.443-3.486s-0.861-2.735-0.861-4.166 0.292-2.853 0.861-4.166c0.569-1.315 1.399-2.502 2.443-3.486 2.325-1.963 5.27-3.038 8.311-3.038s5.989 1.076 8.311 3.038c1.045 0.981 1.874 2.17 2.444 3.486s0.861 2.734 0.861 4.166c0 1.432-0.292 2.852-0.861 4.166s-1.399 2.502-2.444 3.486zM622.371 576.335c-5.175 0.253-10.287-1.214-14.538-4.177-1.743-1.328-3.144-3.061-4.082-5.040-0.941-1.984-1.391-4.161-1.315-6.351v-47.312c-0.044-0.341-0.007-0.686 0.108-1.014s0.296-0.622 0.54-0.865c0.243-0.243 0.539-0.429 0.867-0.54s0.673-0.147 1.013-0.106h14.623c1.653 0 2.436 0.869 2.436 2.523v41.051c0 3.306 1.482 4.958 4.438 4.958 1.319 0.046 2.637-0.098 3.917-0.435 1.74 0 2.699 0.521 2.786 2.085l1.302 10.872c0.063 0.315 0.057 0.644-0.018 0.957s-0.214 0.609-0.414 0.867c-0.198 0.255-0.449 0.468-0.736 0.617s-0.6 0.238-0.924 0.258c-3.23 1.062-6.606 1.622-10.007 1.651z"></path>
<path fill="#000" d="M688.265 508.841c4.575-0.18 9.126 0.559 13.405 2.173s8.18 4.071 11.491 7.22c6.157 6.603 9.582 15.287 9.582 24.309 0 9.020-3.424 17.709-9.582 24.308-3.283 3.178-7.194 5.658-11.469 7.288-4.279 1.629-8.844 2.375-13.423 2.188-6.514 0.147-12.9-1.843-18.184-5.654v31.397c0 1.651-0.873 2.434-2.523 2.434h-14.623c-0.334 0.061-0.677 0.044-1.002-0.057s-0.62-0.275-0.859-0.519c-0.238-0.239-0.418-0.532-0.519-0.859s-0.121-0.668-0.057-1.001v-71.318c0.102-0.699 0.041-1.408-0.183-2.078s-0.596-1.278-1.097-1.777-1.109-0.874-1.777-1.097c-0.67-0.223-1.379-0.284-2.080-0.183h-2.872c-1.914 0-2.871-0.696-2.871-2.085v-10.262c-0.044-0.636 0.13-1.265 0.495-1.79s0.896-0.904 1.509-1.083c3.011-1.095 6.197-1.623 9.402-1.566 3.194-0.282 6.4 0.394 9.208 1.944 2.804 1.549 5.088 3.901 6.548 6.754 2.804-2.833 6.156-5.065 9.85-6.562 3.702-1.496 7.662-2.224 11.645-2.138zM674.694 555.549c1.55 1.622 3.41 2.909 5.479 3.794 2.061 0.88 4.283 1.335 6.528 1.335 2.251 0 4.473-0.455 6.534-1.335s3.929-2.172 5.479-3.794c3.269-3.643 4.988-8.417 4.788-13.306 0.227-4.896-1.496-9.679-4.788-13.306-1.55-1.622-3.42-2.909-5.479-3.794s-4.283-1.335-6.534-1.335c-2.242 0-4.465 0.455-6.528 1.335-2.069 0.88-3.929 2.172-5.479 3.794-3.169 3.69-4.815 8.449-4.614 13.306-0.174 4.856 1.469 9.6 4.614 13.306z"></path>
<path fill="#000" d="M763.808 576.33c-7.812 0.321-15.56-1.546-22.367-5.393-2.733-1.644-5.056-3.884-6.809-6.547-1.74-2.663-2.868-5.689-3.283-8.848 0-1.74 0.609-2.611 2.523-2.611h12.791c0.609 0.023 1.201 0.214 1.705 0.553 0.509 0.341 0.904 0.809 1.161 1.36 1.832 4.696 6.616 7.044 14.278 7.044 2.674 0.121 5.333-0.418 7.748-1.566 0.827-0.377 1.546-0.97 2.069-1.722 0.519-0.75 0.832-1.628 0.893-2.539 0-2.263-1.396-3.828-4.183-4.872-3.297-1.097-6.719-1.83-10.181-2.175-4.102-0.466-8.17-1.19-12.189-2.175-3.901-0.881-7.448-2.912-10.181-5.827-1.61-1.984-2.791-4.273-3.486-6.732-0.686-2.459-0.859-5.033-0.509-7.561 0.355-2.529 1.223-4.96 2.551-7.139s3.097-4.062 5.184-5.529c6.28-3.994 13.632-5.936 21.059-5.564 7.198-0.242 14.32 1.533 20.544 5.131 2.509 1.419 4.675 3.383 6.334 5.745 1.649 2.363 2.767 5.065 3.251 7.908 0 1.74-0.791 2.611-2.355 2.611h-12.881c-0.545 0.033-1.082-0.099-1.55-0.378-0.464-0.278-0.832-0.693-1.060-1.188-0.859-2.061-2.483-3.711-4.524-4.611-2.31-1.206-4.885-1.803-7.489-1.74-2.551-0.137-5.097 0.369-7.394 1.48-0.814 0.315-1.505 0.86-2.001 1.573s-0.773 1.559-0.776 2.427c0.055 1.188 0.491 2.329 1.241 3.255 0.746 0.923 1.773 1.583 2.928 1.88 3.343 1.259 6.816 2.134 10.354 2.611 4.075 0.532 8.112 1.291 12.1 2.262 3.908 0.88 7.448 2.91 10.185 5.827 1.464 1.607 2.592 3.486 3.324 5.53s1.047 4.216 0.941 6.387c0.073 3.007-0.632 5.981-2.048 8.632-1.423 2.652-3.506 4.893-6.053 6.501-6.501 4.171-14.123 6.265-21.844 6.002z"></path>
<path fill="#000" d="M885.755 571.987c0.044 0.308 0.033 0.622-0.033 0.929-0.073 0.301-0.214 0.588-0.405 0.84-0.182 0.251-0.418 0.462-0.686 0.622s-0.572 0.264-0.88 0.304c-3.178 1.036-6.493 1.594-9.831 1.651-3.31 0.341-6.655-0.174-9.704-1.5s-5.702-3.415-7.709-6.066c-6.143 5.283-14.096 7.99-22.187 7.568-3.767 0.174-7.521-0.442-11.027-1.803-3.506-1.365-6.689-3.446-9.349-6.11-2.633-2.791-4.678-6.090-6.011-9.691-1.328-3.6-1.914-7.436-1.732-11.271v-34.007c0-1.651 0.776-2.523 2.437-2.523h14.628c1.646 0 2.432 0.869 2.432 2.523v31.397c-0.155 3.91 1.182 7.736 3.747 10.7 1.278 1.355 2.833 2.421 4.552 3.125 1.732 0.705 3.587 1.034 5.452 0.959 1.907 0.084 3.815-0.211 5.607-0.867 1.787-0.658 3.438-1.663 4.832-2.958 1.328-1.368 2.365-2.988 3.035-4.768s0.973-3.677 0.887-5.579v-32.007c0-1.651 0.776-2.523 2.432-2.523h14.801c1.649 0 2.432 0.869 2.432 2.523v40.966c0 3.393 1.482 5.044 4.359 5.044 1.342 0.052 2.701-0.097 4.001-0.436 0.328-0.093 0.673-0.11 1.014-0.046 0.337 0.059 0.65 0.197 0.928 0.396 0.275 0.198 0.505 0.461 0.664 0.763s0.255 0.636 0.268 0.977l1.041 10.871z"></path>
<path fill="#000" d="M1024.052 571.99c0.073 0.312 0.082 0.636 0.020 0.951-0.068 0.315-0.196 0.609-0.391 0.867s-0.431 0.468-0.718 0.622c-0.282 0.151-0.596 0.238-0.914 0.255-3.238 1.050-6.616 1.61-10.013 1.649-5.17 0.265-10.288-1.201-14.538-4.175-1.832-1.275-3.324-2.98-4.346-4.967-1.014-1.986-1.523-4.193-1.478-6.424v-20.44c0.174-3.898-1.128-7.722-3.664-10.7-1.214-1.359-2.719-2.432-4.411-3.138-1.678-0.707-3.497-1.032-5.333-0.949-1.646-0.062-3.283 0.251-4.788 0.914-1.509 0.662-2.846 1.661-3.908 2.914-2.305 2.915-3.479 6.555-3.31 10.262v32.094c0 1.651-0.787 2.523-2.437 2.523h-14.715c-0.337 0.044-0.686 0.007-1.014-0.106-0.323-0.11-0.618-0.297-0.859-0.539-0.241-0.244-0.431-0.539-0.545-0.867s-0.147-0.673-0.11-1.012v-31.398c0.196-3.858-1.014-7.656-3.392-10.7-1.060-1.278-2.392-2.306-3.895-3.013s-3.152-1.071-4.808-1.071c-1.777-0.070-3.547 0.233-5.197 0.893s-3.138 1.663-4.37 2.934c-2.492 2.821-3.774 6.506-3.574 10.262v32.094c0.041 0.341 0.007 0.686-0.11 1.012-0.114 0.328-0.296 0.622-0.545 0.867-0.241 0.242-0.536 0.429-0.859 0.539s-0.673 0.147-1.014 0.106h-14.182c-1.66 0-2.446-0.868-2.446-2.523v-40.966c0.11-0.699 0.041-1.408-0.174-2.079-0.223-0.669-0.605-1.278-1.1-1.777s-1.111-0.874-1.777-1.097c-0.664-0.224-1.378-0.284-2.074-0.182h-2.874c-1.914 0-2.874-0.697-2.874-2.085v-10.262c-0.041-0.636 0.127-1.265 0.495-1.79 0.364-0.519 0.893-0.904 1.509-1.082 3.001-1.095 6.193-1.623 9.394-1.566 3.075-0.264 6.157 0.352 8.903 1.766 2.74 1.417 5.029 3.576 6.593 6.234 2.928-2.78 6.411-4.926 10.213-6.304s7.849-1.956 11.894-1.7c3.915-0.19 7.83 0.545 11.409 2.147 3.587 1.6 6.744 4.025 9.212 7.074 2.881-3.127 6.421-5.577 10.363-7.172 3.948-1.595 8.194-2.292 12.446-2.048 3.801-0.176 7.589 0.434 11.14 1.797s6.785 3.446 9.481 6.116c2.646 2.788 4.691 6.082 6.029 9.686 1.328 3.602 1.914 7.438 1.719 11.276v16.783c0 3.306 1.478 4.959 4.265 4.959 1.351 0.063 2.701-0.084 4.001-0.435 1.801 0 2.754 0.697 2.874 2.085l0.787 10.871z"></path>
<path fill="#000" d="M3.453 499.627c6.423-25.791 21.292-48.694 42.247-65.063s46.784-25.258 73.38-25.258c26.596 0 52.429 8.89 73.38 25.258s35.826 39.272 42.248 65.063h-10.442c-17.619-0.26-34.877 5.002-49.351 15.048-0.836 0.605-1.707 1.156-2.613 1.649h-1.218c-0.904-0.495-1.777-1.047-2.613-1.649-14.601-9.813-31.798-15.050-49.393-15.050s-34.793 5.241-49.393 15.050c-0.836 0.605-1.707 1.156-2.613 1.649h-1.219c-0.904-0.495-1.777-1.047-2.613-1.649-14.474-10.044-31.73-15.307-49.351-15.048h-10.442zM205.465 554.16c5.36-4.173 12.008-6.356 18.8-6.175h14.012v-27.919h-14.012c-11.967-0.146-23.658 3.576-33.335 10.61-5.448 4.012-12.035 6.178-18.8 6.178s-13.355-2.162-18.8-6.178c-9.924-6.901-21.725-10.602-33.815-10.602s-23.892 3.702-33.814 10.602c-5.448 4.012-12.035 6.178-18.8 6.178-6.767 0-13.356-2.162-18.8-6.178-9.798-7.124-21.657-10.851-33.769-10.61h-14.447v27.919h14.012c6.794-0.181 13.438 2.002 18.8 6.175 9.904 6.907 21.691 10.61 33.77 10.61 12.077 0 23.866-3.704 33.77-10.61 5.369-4.161 12.008-6.34 18.8-6.175 6.796-0.196 13.447 1.989 18.8 6.175 9.923 6.901 21.725 10.602 33.814 10.602s23.892-3.702 33.814-10.602zM205.465 604.083c5.36-4.173 12.008-6.356 18.8-6.175h14.012v-27.918h-14.012c-11.967-0.147-23.658 3.574-33.335 10.61-5.448 4.012-12.035 6.178-18.8 6.178s-13.355-2.162-18.8-6.178c-9.924-6.902-21.725-10.602-33.815-10.602s-23.892 3.701-33.814 10.602c-5.448 4.012-12.035 6.178-18.8 6.178-6.767 0-13.356-2.162-18.8-6.178-9.798-7.124-21.657-10.851-33.769-10.61h-14.447v27.918h14.012c6.794-0.181 13.438 2.002 18.8 6.175 9.904 6.908 21.691 10.61 33.77 10.61 12.077 0 23.866-3.704 33.77-10.61 5.369-4.16 12.008-6.34 18.8-6.175 6.796-0.196 13.447 1.989 18.8 6.175 9.923 6.901 21.725 10.603 33.814 10.603s23.892-3.702 33.814-10.603z"></path>
</svg>
