<!-- Generated by IcoMoon.io -->
<svg version="1.1" xmlns="http://www.w3.org/2000/svg" width="1024" height="1024" viewBox="0 0 1024 1024">
<title></title>
<g id="icomoon-ignore">
</g>
<path d="M296.562 461.014h25.864v104.476h-25.864v-104.476zM332.685 526.042c0-25.839 15.862-41.256 40.347-41.256s40.347 15.417 40.347 41.256c0 25.84-15.519 41.343-40.347 41.343-24.83 0-40.347-15.073-40.347-41.343zM387.43 526.042c0-14.211-5.604-22.566-14.397-22.566s-14.311 8.613-14.311 22.566 5.431 22.394 14.311 22.394c8.879 0 14.397-7.924 14.397-22.308v-0.087zM423.121 570.572h24.829c1.182 2.622 3.18 4.794 5.696 6.191s5.417 1.944 8.27 1.56c9.829 0 15.002-5.339 15.002-13.091v-14.47h-0.518c-2.061 4.435-5.404 8.151-9.6 10.669s-9.049 3.721-13.936 3.457c-18.879 0-31.381-14.385-31.381-39.104s11.897-40.309 31.726-40.309c5.039-0.197 10.019 1.149 14.272 3.858s7.575 6.653 9.522 11.301v-14.384h25.864v78.379c0 18.863-16.64 30.577-41.21 30.577-22.846 0-37.071-10.25-38.538-24.547v-0.087zM477.004 525.956c0-12.575-5.777-20.5-14.915-20.5s-14.742 7.838-14.742 20.5 5.517 19.809 14.742 19.809c9.224 0 14.915-6.976 14.915-19.724v-0.086zM512.61 525.956c0-25.84 15.863-41.257 40.347-41.257s40.434 15.417 40.434 41.257c0 25.839-15.518 41.342-40.434 41.342s-40.347-14.987-40.347-41.257v-0.086zM567.355 525.956c0-14.212-5.604-22.566-14.398-22.566s-13.88 8.7-13.88 22.738 5.431 22.394 14.225 22.394c8.794 0 14.053-8.010 14.053-22.394v-0.172zM603.219 467.473c-0.067-2.608 0.641-5.178 2.037-7.384s3.417-3.948 5.805-5.005 5.037-1.382 7.61-0.934c2.573 0.448 4.955 1.65 6.844 3.452s3.2 4.125 3.767 6.673c0.566 2.547 0.363 5.205-0.585 7.638s-2.596 4.528-4.738 6.022-4.678 2.32-7.291 2.372c-1.731 0.119-3.468-0.122-5.102-0.705s-3.129-1.499-4.392-2.688c-1.263-1.189-2.267-2.626-2.946-4.221s-1.024-3.314-1.008-5.047v-0.173zM603.219 486.422h25.864v79.068h-25.864v-79.068zM722.971 525.956c0 25.839-11.468 40.567-31.123 40.567-5.041 0.324-10.061-0.907-14.376-3.526-4.321-2.618-7.729-6.499-9.767-11.116h-0.518v38.931h-25.863v-104.562h25.863v14.125h0.518c1.943-4.693 5.286-8.674 9.576-11.402 4.287-2.727 9.315-4.069 14.389-3.843 19.832 0.345 31.639 15.16 31.639 40.998l-0.34-0.172zM697.107 525.956c0-12.575-5.782-20.585-14.831-20.585-9.053 0-14.829 8.096-14.916 20.585s5.863 20.5 14.916 20.5c9.049 0 14.831-7.838 14.831-20.327v-0.172zM767.367 484.614c21.464 0 34.483 10.164 35.088 26.442h-23.537c0-5.599-4.651-9.13-11.811-9.13-7.157 0-10.343 2.756-10.343 6.805 0 4.047 2.846 5.339 8.622 6.545l16.546 3.359c15.788 3.359 22.504 9.733 22.504 21.705 0 16.365-14.916 26.873-36.901 26.873-21.982 0-36.378-10.508-37.499-26.615h24.913c0.782 5.857 5.436 9.302 13.022 9.302 7.581 0 11.038-2.498 11.038-6.631 0-4.135-2.417-4.996-8.621-6.288l-14.916-3.186c-15.436-3.187-23.54-11.369-23.54-23.428 0.177-15.504 14.056-25.581 35.435-25.581v-0.172zM890.736 565.318h-24.922v-14.728h-0.513c-1.369 4.945-4.391 9.273-8.56 12.266s-9.24 4.47-14.373 4.185c-3.932 0.223-7.856-0.398-11.528-1.824-3.664-1.426-6.992-3.621-9.73-6.438-2.746-2.817-4.857-6.19-6.188-9.891s-1.843-7.644-1.522-11.562v-51.076h25.87v45.133c0 9.388 4.827 14.383 12.843 14.383 1.882 0.005 3.741-0.393 5.446-1.167 1.721-0.773 3.251-1.902 4.49-3.313s2.165-3.071 2.708-4.868c0.551-1.797 0.704-3.691 0.459-5.553v-44.616h25.87l-0.352 79.068zM903.235 486.25h25.006v15.245h0.513c1.377-4.88 4.33-9.166 8.399-12.19s9.034-4.613 14.105-4.519c5.163-0.412 10.288 1.131 14.366 4.322 4.069 3.192 6.793 7.799 7.619 12.904h0.52c1.56-5.159 4.796-9.652 9.202-12.771s9.715-4.686 15.107-4.454c3.511-0.118 7.022 0.505 10.281 1.827s6.204 3.316 8.644 5.85c2.44 2.535 4.322 5.553 5.515 8.86s1.675 6.828 1.423 10.335v53.831h-25.863v-46.941c0-8.612-3.886-12.575-11.122-12.575-1.614-0.014-3.22 0.319-4.689 0.975-1.476 0.656-2.792 1.621-3.863 2.829s-1.866 2.632-2.341 4.175c-0.474 1.542-0.612 3.168-0.405 4.769v46.768h-24.562v-47.285c0-7.924-3.878-12.231-10.954-12.231-1.629 0.001-3.243 0.347-4.735 1.017-1.484 0.669-2.823 1.648-3.909 2.868-1.079 1.222-1.889 2.657-2.379 4.215-0.482 1.557-0.635 3.201-0.444 4.821v46.596h-25.863l0.428-79.24z"></path>
<path d="M224.229 465.753c-4.388-10.022-10.194-19.362-17.243-27.734-10.418-12.744-23.421-23.14-38.151-30.502s-30.854-11.524-47.311-12.213c-16.457-0.688-32.872 2.113-48.167 8.22s-29.121 15.38-40.57 27.21-20.26 25.948-25.854 41.425c-5.594 15.477-7.843 31.962-6.601 48.37s5.95 32.368 13.811 46.827c7.861 14.46 18.698 27.093 31.798 37.067 8.406 6.527 17.694 11.834 27.588 15.762 13.872 5.68 28.719 8.605 43.71 8.613 30.945-0.068 60.601-12.391 82.465-34.268s34.157-51.522 34.179-82.439c0.024-15.947-3.265-31.725-9.655-46.338zM117.153 418.984c13.463-0.001 26.762 2.938 38.968 8.613-2.976 1.285-6.106 2.182-9.311 2.67-10.548 1.525-20.318 6.417-27.854 13.946s-12.432 17.29-13.959 27.828c-0.67 5.909-3.36 11.407-7.616 15.565s-9.818 6.722-15.747 7.259c-10.547 1.525-20.318 6.417-27.853 13.946s-12.433 17.291-13.959 27.828c-0.517 5.619-2.917 10.9-6.811 14.987-6.719-14.183-9.737-29.834-8.774-45.496s5.876-30.826 14.283-44.082c8.406-13.255 20.032-24.17 33.796-31.729s29.218-11.518 44.925-11.506l-0.087 0.172zM45.855 572.383c1.035-0.948 2.069-1.81 3.104-2.843 7.67-7.429 12.593-17.235 13.966-27.82 0.557-5.949 3.216-11.506 7.501-15.676 4.123-4.287 9.672-6.922 15.604-7.407 10.548-1.525 20.318-6.418 27.854-13.946s12.433-17.29 13.959-27.827c0.373-6.223 3.047-12.086 7.5-16.451 4.226-4.205 9.828-6.743 15.778-7.149 9.689-1.332 18.726-5.635 25.863-12.317 8.127 6.736 15.013 14.84 20.347 23.944-0.327 0.442-0.704 0.846-1.121 1.205-4.115 4.326-9.657 7.018-15.604 7.58-10.559 1.499-20.343 6.383-27.884 13.916s-12.429 17.31-13.929 27.858c-0.607 5.929-3.249 11.466-7.475 15.674s-9.779 6.825-15.716 7.409c-10.578 1.514-20.385 6.396-27.965 13.922s-12.527 17.293-14.107 27.851c-0.464 4.21-1.911 8.252-4.224 11.801-8.846-5.247-16.768-11.911-23.45-19.724zM117.153 605.628c-8.748 0.009-17.454-1.209-25.863-3.617 2.876-5.357 4.746-11.196 5.517-17.226 0.605-5.916 3.233-11.443 7.442-15.648s9.741-6.831 15.664-7.434c10.562-1.508 20.353-6.392 27.906-13.923s12.462-17.301 13.993-27.851c0.604-5.916 3.233-11.443 7.442-15.648s9.741-6.831 15.664-7.435c7.948-1.033 15.524-3.989 22.069-8.612 3.635 13.763 4.065 28.175 1.259 42.129-2.807 13.956-8.775 27.083-17.448 38.375s-19.82 20.451-32.586 26.77c-12.766 6.32-26.811 9.635-41.058 9.69v0.431z"></path>
</svg>
