<!-- Generated by IcoMoon.io -->
<svg version="1.1" xmlns="http://www.w3.org/2000/svg" width="1024" height="1024" viewBox="0 0 1024 1024">
<title></title>
<g id="icomoon-ignore">
</g>
<path d="M1023.999 567.122v25.386h-21.293c-22.722-0.714-34.863-12.985-34.863-36.033v-57.978h-14.867v-22.269h14.867v-24.931h31.419v24.671h24.026v22.204h-24.026v55.187c0 7.466 1.495 13.439 12.984 13.439l11.753 0.325z"></path>
<path d="M827.723 534.595v-1.688c-0.337-7.467 0.799-14.928 3.349-21.955s6.455-13.482 11.504-18.995c5.049-5.513 11.137-9.975 17.915-13.131s14.105-4.944 21.579-5.261c1.487 0 3.048 0 4.543 0 29.668 0 55.702 17.27 55.702 58.432v8.765h-82.454c0.843 18.959 11.101 29.671 28.371 29.671 14.867 0 21.813-6.493 23.828-15.971h29.675c-3.642 24.736-23.374 38.5-54.603 38.5-34.284-0.26-59.409-21.944-59.409-58.368zM911.415 520.895c-1.106-17.27-9.804-25.58-24.935-25.58s-23.828 9.35-25.968 25.58h50.903z"></path>
<path d="M699.44 534.595v-1.688c-0.341-7.457 0.792-14.908 3.333-21.927s6.439-13.468 11.473-18.979c5.034-5.511 11.108-9.976 17.871-13.139 6.756-3.163 14.076-4.963 21.535-5.297 1.495 0 3.048 0 4.543 0 29.675 0 55.775 17.27 55.775 58.432v8.765h-82.395c0.85 18.959 11.108 29.671 28.379 29.671 14.867 0 21.813-6.493 23.821-15.971h29.675c-3.7 24.736-23.44 38.5-54.669 38.5-34.218-0.26-59.341-21.944-59.341-58.368zM783.129 520.895c-1.106-17.27-9.804-25.58-24.935-25.58-15.124 0-23.564 9.609-25.968 25.516l50.903 0.065z"></path>
<path d="M519.404 475.966h33.242l20.322 77.001 22.27-77.001h25.97l20.127 77.001 21.426-77.001h30.45l-36.099 114.398h-31.164l-19.477-71.807-20.841 71.807h-31.553l-34.67-114.398z"></path>
<path d="M413.76 554.396h29.67c1.363 10.323 6.493 16.231 20.127 16.231 12.206 0 17.854-4.61 17.854-12.466s-6.493-11.167-23.114-13.504c-30.45-4.61-42.201-13.374-42.201-35.709 0-23.828 21.816-35.644 45.448-35.644 25.385 0 44.539 9.219 47.265 35.514h-29.281c-0.187-2.033-0.774-4.008-1.729-5.813s-2.258-3.401-3.834-4.699c-1.575-1.298-3.393-2.271-5.346-2.863s-4.006-0.79-6.037-0.584h-0.974c-10.258 0-16.231 4.805-16.231 11.816s5.519 10.064 22.27 12.466c28.437 4.285 44.344 11.492 44.344 35.969s-17.985 37.591-48.109 37.591c-30.125 0-49.279-13.569-50.122-38.305z"></path>
<path d="M287.68 475.966h31.424v18.114c3.542-6.649 8.918-12.141 15.49-15.824s14.062-5.402 21.583-4.952c22.27 0 38.436 13.57 38.436 44.538v72.781h-31.035v-68.236c0-15.517-6.038-22.919-20.061-22.919-2.965-0.258-5.95 0.072-8.786 0.971s-5.467 2.349-7.741 4.267c-2.275 1.919-4.147 4.267-5.512 6.912s-2.193 5.531-2.438 8.497c-0.163 1.38-0.163 2.775 0 4.155v66.093h-31.359v-114.398z"></path>
<path d="M227.040 447.205c-0.114-3.133 0.704-6.229 2.351-8.897s4.048-4.787 6.9-6.089c2.852-1.302 6.027-1.729 9.121-1.226s5.97 1.913 8.263 4.051c2.293 2.138 3.9 4.909 4.618 7.961s0.513 6.248-0.587 9.184c-1.101 2.936-3.047 5.479-5.594 7.308s-5.578 2.861-8.711 2.966h-0.584c-1.945 0.123-3.895-0.139-5.738-0.771s-3.543-1.622-5.004-2.913c-1.46-1.291-2.65-2.857-3.503-4.609s-1.351-3.655-1.467-5.6c-0.054-0.452-0.076-0.908-0.065-1.363zM227.040 475.967h31.748v114.398h-31.619l-0.13-114.398z"></path>
<path d="M107.389 434.026h100.375v27.723h-64.926v41.358h51.421v26.684h-51.485v60.575h-35.385v-156.339z"></path>
<path d="M46.81 485.186c0 9.804 0 21.75-13.504 26.619 13.829 4.74 13.504 14.803 13.504 25.321v38.955c0 7.401 2.987 11.881 8.311 12.985 1.169 0.395 2.402 0.571 3.636 0.519h12.985v25.97h-21.425c-22.854 0-35.449-12.985-35.449-37.072v-46.096c-0.162-2.367-1.205-4.586-2.924-6.221s-3.988-2.566-6.36-2.609h-5.584v-22.788h5.584c2.419-0.032 4.733-0.994 6.462-2.686s2.739-3.985 2.823-6.403v-46.746c0-23.698 12.336-36.488 35.449-36.488h21.62v25.581h-12.985c-1.235 0.004-2.462 0.201-3.636 0.584-5.324 1.363-8.311 5.778-8.311 12.985l-0.195 37.591z"></path>
</svg>
